<?xml version="1.0" standalone="no"?>
<!DOCTYPE svg PUBLIC "-//W3C//DTD SVG 20010904//EN"
 "http://www.w3.org/TR/2001/REC-SVG-20010904/DTD/svg10.dtd">
<svg version="1.0" xmlns="http://www.w3.org/2000/svg"
 width="35px" height="35px" viewBox="0 0 128.000000 128.000000"
 preserveAspectRatio="xMidYMid meet">

<g transform="translate(0.000000,128.000000) scale(0.100000,-0.100000)"
fill="#1B1F23" stroke="none">
<path d="M501 1154 c-84 -22 -170 -73 -236 -139 -208 -208 -208 -542 0 -750
208 -208 542 -208 750 0 208 208 208 542 0 750 -67 67 -153 117 -240 140 -73
19 -202 18 -274 -1z m344 -260 c60 -28 66 -55 63 -301 l-3 -218 -52 -3 -53 -3
0 215 0 216 -55 0 -55 0 0 -185 0 -185 -50 0 -50 0 0 185 0 185 -55 0 -55 0 0
-216 0 -215 -52 3 -53 3 -3 218 c-4 320 -7 316 266 317 138 0 181 -3 207 -16z"/>
</g>
</svg>
